<svg width="25" height="21" viewBox="0 0 25 21" fill="none" xmlns="http://www.w3.org/2000/svg">
<path d="M7.82823 20.1462C16.8826 20.1462 21.8364 12.6429 21.8364 6.1381C21.8364 5.92716 21.8317 5.71154 21.8223 5.5006C22.786 4.8037 23.6176 3.94049 24.2781 2.95154C23.3806 3.35084 22.4277 3.61162 21.452 3.72498C22.4794 3.10915 23.2486 2.14171 23.6171 1.00201C22.6506 1.5748 21.5937 1.97885 20.4915 2.19685C19.7489 1.4078 18.7671 0.885357 17.6978 0.710291C16.6285 0.535226 15.5313 0.717291 14.5758 1.22834C13.6204 1.73938 12.8599 2.55095 12.4119 3.53755C11.964 4.52416 11.8535 5.63086 12.0976 6.68654C10.1406 6.58833 8.22601 6.07994 6.47806 5.19434C4.7301 4.30873 3.18777 3.06568 1.95104 1.54576C1.32248 2.62948 1.13013 3.91189 1.41311 5.13233C1.69608 6.35278 2.43314 7.41969 3.47448 8.11623C2.6927 8.09141 1.92805 7.88092 1.2437 7.50216V7.5631C1.243 8.70039 1.63617 9.80283 2.35639 10.683C3.0766 11.5632 4.0794 12.1668 5.19433 12.3912C4.47013 12.5894 3.71006 12.6182 2.97292 12.4756C3.28753 13.4537 3.89965 14.3091 4.72385 14.9226C5.54804 15.536 6.5432 15.8768 7.57042 15.8975C5.8265 17.2673 3.67225 18.0104 1.45464 18.0069C1.06136 18.0063 0.668475 17.9821 0.278076 17.9347C2.53093 19.38 5.15161 20.1476 7.82823 20.1462Z" fill="white"/>
</svg>
